<mxfile host="app.diagrams.net" modified="2023-11-10T19:48:13.035Z" agent="Mozilla/5.0 (Macintosh; Intel Mac OS X 10_15_7) AppleWebKit/537.36 (KHTML, like Gecko) Chrome/107.0.0.0 Safari/537.36" etag="Opm2I8dzEcF-xVlJbwmA" version="22.1.0" type="device">
  <diagram name="Страница — 1" id="05_mMnpTA4oAyFnMqN2C">
    <mxGraphModel dx="1562" dy="938" grid="1" gridSize="10" guides="1" tooltips="1" connect="1" arrows="1" fold="1" page="1" pageScale="1" pageWidth="827" pageHeight="1169" math="0" shadow="0">
      <root>
        <mxCell id="0" />
        <mxCell id="1" parent="0" />
        <mxCell id="aRq2Ite3i-hV6_ttZPyy-1" value="" style="rounded=0;whiteSpace=wrap;html=1;" parent="1" vertex="1">
          <mxGeometry x="240" y="80" width="310" height="300" as="geometry" />
        </mxCell>
        <mxCell id="aRq2Ite3i-hV6_ttZPyy-2" value="input 1 heder" style="rounded=0;whiteSpace=wrap;html=1;" parent="1" vertex="1">
          <mxGeometry x="260" y="80" width="250" height="60" as="geometry" />
        </mxCell>
        <mxCell id="aRq2Ite3i-hV6_ttZPyy-3" value="input 1 tekst&lt;br&gt;" style="rounded=0;whiteSpace=wrap;html=1;" parent="1" vertex="1">
          <mxGeometry x="250" y="150" width="290" height="150" as="geometry" />
        </mxCell>
        <mxCell id="aRq2Ite3i-hV6_ttZPyy-4" value="date creathion" style="rounded=0;whiteSpace=wrap;html=1;" parent="1" vertex="1">
          <mxGeometry x="250" y="310" width="120" height="60" as="geometry" />
        </mxCell>
        <mxCell id="aRq2Ite3i-hV6_ttZPyy-5" value="date last change" style="rounded=0;whiteSpace=wrap;html=1;" parent="1" vertex="1">
          <mxGeometry x="420" y="310" width="120" height="60" as="geometry" />
        </mxCell>
        <mxCell id="aRq2Ite3i-hV6_ttZPyy-6" value="delete" style="rounded=0;whiteSpace=wrap;html=1;" parent="1" vertex="1">
          <mxGeometry x="540" y="60" width="50" height="30" as="geometry" />
        </mxCell>
        <mxCell id="aRq2Ite3i-hV6_ttZPyy-7" value="save" style="rounded=0;whiteSpace=wrap;html=1;" parent="1" vertex="1">
          <mxGeometry x="490" y="60" width="50" height="30" as="geometry" />
        </mxCell>
        <mxCell id="aRq2Ite3i-hV6_ttZPyy-8" value="clean&amp;nbsp;&lt;br&gt;-input 1&lt;br&gt;-input 2&lt;br&gt;date 1&lt;br&gt;date 2" style="rounded=0;whiteSpace=wrap;html=1;" parent="1" vertex="1">
          <mxGeometry x="650" y="32.5" width="120" height="85" as="geometry" />
        </mxCell>
        <mxCell id="aRq2Ite3i-hV6_ttZPyy-9" value="" style="endArrow=none;html=1;rounded=0;" parent="1" edge="1">
          <mxGeometry width="50" height="50" relative="1" as="geometry">
            <mxPoint x="590" y="74.5" as="sourcePoint" />
            <mxPoint x="650" y="74.5" as="targetPoint" />
            <Array as="points">
              <mxPoint x="620" y="74.5" />
            </Array>
          </mxGeometry>
        </mxCell>
        <mxCell id="aRq2Ite3i-hV6_ttZPyy-10" value="" style="endArrow=none;html=1;rounded=0;entryX=0.5;entryY=1;entryDx=0;entryDy=0;" parent="1" target="aRq2Ite3i-hV6_ttZPyy-7" edge="1">
          <mxGeometry width="50" height="50" relative="1" as="geometry">
            <mxPoint x="640" y="460" as="sourcePoint" />
            <mxPoint x="765" y="180" as="targetPoint" />
            <Array as="points">
              <mxPoint x="680" y="200" />
            </Array>
          </mxGeometry>
        </mxCell>
        <mxCell id="aRq2Ite3i-hV6_ttZPyy-11" value="array with object [header, tekst, date1,date2" style="rounded=0;whiteSpace=wrap;html=1;" parent="1" vertex="1">
          <mxGeometry x="330" y="460" width="440" height="60" as="geometry" />
        </mxCell>
        <mxCell id="aRq2Ite3i-hV6_ttZPyy-15" value="" style="endArrow=classic;html=1;rounded=0;" parent="1" edge="1">
          <mxGeometry width="50" height="50" relative="1" as="geometry">
            <mxPoint x="540" y="520" as="sourcePoint" />
            <mxPoint x="375" y="650" as="targetPoint" />
          </mxGeometry>
        </mxCell>
        <mxCell id="aRq2Ite3i-hV6_ttZPyy-16" value="Functhion show notes&lt;br&gt;" style="text;html=1;strokeColor=none;fillColor=none;align=center;verticalAlign=middle;whiteSpace=wrap;rounded=0;" parent="1" vertex="1">
          <mxGeometry x="430" y="585" width="150" height="30" as="geometry" />
        </mxCell>
        <mxCell id="aRq2Ite3i-hV6_ttZPyy-17" value="funchtion save in array&lt;br&gt;" style="text;html=1;strokeColor=none;fillColor=none;align=center;verticalAlign=middle;whiteSpace=wrap;rounded=0;" parent="1" vertex="1">
          <mxGeometry x="660" y="270" width="150" height="30" as="geometry" />
        </mxCell>
        <mxCell id="aRq2Ite3i-hV6_ttZPyy-18" value="" style="rounded=0;whiteSpace=wrap;html=1;" parent="1" vertex="1">
          <mxGeometry x="30" y="635" width="310" height="315" as="geometry" />
        </mxCell>
        <mxCell id="aRq2Ite3i-hV6_ttZPyy-19" value="input 1 heder" style="rounded=0;whiteSpace=wrap;html=1;" parent="1" vertex="1">
          <mxGeometry x="50" y="635" width="250" height="60" as="geometry" />
        </mxCell>
        <mxCell id="aRq2Ite3i-hV6_ttZPyy-20" value="input 1 tekst&lt;br&gt;" style="rounded=0;whiteSpace=wrap;html=1;" parent="1" vertex="1">
          <mxGeometry x="40" y="705" width="290" height="150" as="geometry" />
        </mxCell>
        <mxCell id="aRq2Ite3i-hV6_ttZPyy-21" value="date creathion" style="rounded=0;whiteSpace=wrap;html=1;" parent="1" vertex="1">
          <mxGeometry x="40" y="865" width="120" height="60" as="geometry" />
        </mxCell>
        <mxCell id="aRq2Ite3i-hV6_ttZPyy-22" value="date last change" style="rounded=0;whiteSpace=wrap;html=1;" parent="1" vertex="1">
          <mxGeometry x="210" y="865" width="120" height="60" as="geometry" />
        </mxCell>
        <mxCell id="aRq2Ite3i-hV6_ttZPyy-23" value="delete" style="rounded=0;whiteSpace=wrap;html=1;" parent="1" vertex="1">
          <mxGeometry x="330" y="615" width="50" height="30" as="geometry" />
        </mxCell>
        <mxCell id="aRq2Ite3i-hV6_ttZPyy-26" style="edgeStyle=orthogonalEdgeStyle;rounded=0;orthogonalLoop=1;jettySize=auto;html=1;exitX=0.5;exitY=0;exitDx=0;exitDy=0;entryX=0;entryY=0.5;entryDx=0;entryDy=0;" parent="1" source="aRq2Ite3i-hV6_ttZPyy-24" target="aRq2Ite3i-hV6_ttZPyy-1" edge="1">
          <mxGeometry relative="1" as="geometry">
            <mxPoint x="70" y="290" as="targetPoint" />
            <Array as="points">
              <mxPoint x="70" y="615" />
              <mxPoint x="70" y="230" />
            </Array>
          </mxGeometry>
        </mxCell>
        <mxCell id="aRq2Ite3i-hV6_ttZPyy-24" value="change" style="rounded=0;whiteSpace=wrap;html=1;" parent="1" vertex="1">
          <mxGeometry x="280" y="615" width="50" height="30" as="geometry" />
        </mxCell>
        <mxCell id="aRq2Ite3i-hV6_ttZPyy-27" value="put date in input" style="text;html=1;strokeColor=none;fillColor=none;align=center;verticalAlign=middle;whiteSpace=wrap;rounded=0;" parent="1" vertex="1">
          <mxGeometry x="70" y="440" width="60" height="30" as="geometry" />
        </mxCell>
        <mxCell id="aRq2Ite3i-hV6_ttZPyy-28" value="Sort functhion" style="rounded=0;whiteSpace=wrap;html=1;" parent="1" vertex="1">
          <mxGeometry x="670" y="510" width="120" height="60" as="geometry" />
        </mxCell>
        <mxCell id="IviMxUQEyEAtgrC6rzhK-3" value="1 try" style="ellipse;whiteSpace=wrap;html=1;aspect=fixed;" vertex="1" parent="1">
          <mxGeometry x="30" y="10" width="80" height="80" as="geometry" />
        </mxCell>
      </root>
    </mxGraphModel>
  </diagram>
</mxfile>
